<svg width="29" height="35" viewBox="0 0 29 35" fill="none" xmlns="http://www.w3.org/2000/svg">
<path d="M1 28.5C0.772271 28.5 0.573311 28.6539 0.516059 28.8743C0.458807 29.0947 0.557728 29.326 0.75667 29.4368L3.89301 31.184C4.26502 31.3912 4.68381 31.5 5.10965 31.5H23.6735C25.5833 31.5 27.1405 29.969 27.173 28.0595L27.5507 5.8443C27.5726 4.55607 26.5343 3.5 25.2459 3.5C24.9733 3.5 24.751 3.7183 24.746 3.99082L24.341 26.0459C24.316 27.4085 23.2043 28.5 21.8415 28.5H1Z" fill="#E6E6E6" stroke="black" stroke-linejoin="round"/>
<path d="M5.53353 3.99209C5.53785 3.71906 5.7604 3.5 6.03346 3.5H24.9521C26.3483 3.5 27.4739 4.64355 27.4518 6.03957L27.0878 29.0396C27.0662 30.4047 25.9534 31.5 24.5881 31.5H5.6061C5.32687 31.5 5.10175 31.2713 5.10616 30.9921L5.53353 3.99209Z" stroke="black"/>
<path d="M0.943376 0.992085C0.947698 0.719064 1.17026 0.5 1.44331 0.5H22.198C23.5942 0.5 24.7198 1.64355 24.6977 3.03957L24.3337 26.0396C24.3121 27.4047 23.1993 28.5 21.834 28.5H0.507977L0.943376 0.992085Z" fill="white" stroke="black"/>
<path d="M4.13114 1L3.67212 28" stroke="black" stroke-linejoin="round"/>
<path d="M22.0328 34V28.5H17.4426V34L19.7377 32.1007L22.0328 34Z" fill="white" stroke="black" stroke-linejoin="round"/>
<path d="M9.1803 23L18.3606 23" stroke="black" stroke-linecap="round"/>
<path d="M9.1803 19H10.0983" stroke="black" stroke-linecap="round"/>
<path d="M12.8525 19H11.9344" stroke="black" stroke-linecap="round"/>
<path d="M15.6066 19H18.3607" stroke="black" stroke-linecap="round"/>
<path d="M19.2787 8.30504C19.2787 7.54452 18.9885 6.81514 18.4721 6.27737C17.9557 5.7396 17.2553 5.43748 16.5249 5.43748C16.4067 5.43743 16.2885 5.44524 16.1712 5.46085C15.9315 5.0176 15.5829 4.64871 15.1612 4.392C14.7394 4.13529 14.2597 4 13.7712 4C13.2827 4 12.803 4.13529 12.3813 4.392C11.9595 4.64871 11.6109 5.0176 11.3712 5.46085C10.6828 5.36769 9.98601 5.54869 9.42026 5.96764C8.85451 6.38659 8.46157 7.01257 8.32008 7.72031C8.17859 8.42804 8.29899 9.16532 8.65718 9.78456C9.01537 10.4038 9.58493 10.8594 10.2519 11.06V14H17.2906V11.06C17.8639 10.8871 18.3677 10.525 18.7262 10.0281C19.0848 9.53125 19.2787 8.92655 19.2787 8.30504Z" fill="white" stroke="black" stroke-miterlimit="10" stroke-linejoin="round"/>
</svg>
