<svg width="17" height="17" viewBox="0 0 17 17" fill="none" xmlns="http://www.w3.org/2000/svg">
<path fill-rule="evenodd" clip-rule="evenodd" d="M9.89949 4.24265C11.4616 5.80475 11.4616 8.33741 9.89949 9.8995C8.3374 11.4616 5.80474 11.4616 4.24264 9.8995C2.68054 8.33741 2.68054 5.80475 4.24264 4.24265C5.80474 2.68055 8.3374 2.68055 9.89949 4.24265ZM11.243 9.82878C12.5292 7.88741 12.3171 5.246 10.6066 3.53554C8.65398 1.58292 5.48816 1.58292 3.53553 3.53554C1.58291 5.48816 1.58291 8.65399 3.53553 10.6066C5.246 12.3171 7.8874 12.5292 9.82877 11.243L9.89949 11.3137L12.0208 13.435C12.4113 13.8256 13.0445 13.8256 13.435 13.435C13.8256 13.0445 13.8256 12.4113 13.435 12.0208L11.3137 9.8995L11.243 9.82878Z" fill="#E6E6E6"/>
</svg>
