<svg width="21" height="23" viewBox="0 0 21 23" fill="none" xmlns="http://www.w3.org/2000/svg">
<path fill-rule="evenodd" clip-rule="evenodd" d="M1.05749 4.26723C1.14393 4.10289 1.31432 4 1.5 4H17.5C17.6857 4 17.8561 4.10289 17.9425 4.26723C18.029 4.43156 18.0172 4.63026 17.912 4.78326L16.3904 6.99653C14.3341 5.16033 11.1767 5.22912 9.20292 7.20291C7.15785 9.24797 7.15785 12.5637 9.20292 14.6087C10.1222 15.528 11.2981 16.034 12.5 16.1269V20.5C12.5 20.7045 12.3755 20.8883 12.1857 20.9642L7.1857 22.9642C7.03165 23.0259 6.85707 23.007 6.71969 22.914C6.5823 22.821 6.5 22.6659 6.5 22.5V13.1212C6.5 12.8177 6.40797 12.5214 6.23606 12.2714L1.08798 4.78326C0.982787 4.63026 0.971047 4.43156 1.05749 4.26723Z" fill="white"/>
<path d="M16.9213 13.507L16.2142 12.7999L14.8 14.2141L15.5071 14.9212L16.9213 13.507ZM18.5071 17.9212C18.8976 18.3118 19.5308 18.3118 19.9213 17.9212C20.3118 17.5307 20.3118 16.8976 19.9213 16.507L18.5071 17.9212ZM15.5071 14.9212L18.5071 17.9212L19.9213 16.507L16.9213 13.507L15.5071 14.9212Z" fill="white"/>
<path d="M15.6781 8.27099C17.1712 9.76411 17.1712 12.1849 15.6781 13.678C14.1849 15.1712 11.7641 15.1712 10.271 13.678C8.77788 12.1849 8.77788 9.76411 10.271 8.27099C11.7641 6.77787 14.1849 6.77787 15.6781 8.27099Z" stroke="white"/>
<path fill-rule="evenodd" clip-rule="evenodd" d="M1.5 1H17.5V2H1.5V1Z" fill="white" stroke="white" stroke-width="1.5" stroke-linecap="square" stroke-linejoin="round"/>
</svg>
