<svg width="139" height="262" viewBox="0 0 139 262" fill="none" xmlns="http://www.w3.org/2000/svg">
<path d="M0 109L52 0C52 0 54 4.5 54 12.5C54 12.5 55.2377 13.2131 56 15.5C57 18 57 22 57 22C57 22 53.5 16.5 51.5 16.5C49.5 16.5 48.5 20.5 48.5 20.5L37 72.5C37 72.5 41.7148 75.1947 43.5 78C47 83.5 45 87.5 45 87.5C45 87.5 41 80.2857 36 81C31.7804 81.6028 27.6105 104.506 27.5 105.5C27 110 30.0097 114.812 35 114.5C43.3325 113.979 47.36 112.064 46.5 110C44 104 40 101.5 40 101.5C40 101.5 44 99 55 110C54.5 106.5 53 105 53 105C53 105 58 104 60.5 112.5C60.6915 111.543 60.5235 110.976 60.5 110C52 96.5 55 90.5 56.5 87.5C61.2001 78.0998 73 75.5 76 74.5C79.9115 73.1962 85.6356 67.417 81 60C76.9375 53.5 65.5 55 59.5 61C57 63.5 57.5 67 57.5 67C57.5 67 54.4681 67.5 53.5 64C52.6702 61 56.5 56.5 56.5 56.5C56.5 56.5 55.5333 53.6056 56 51.5C56.6338 48.6405 59.8945 48.0274 60.5 45C61.9 38 58.3876 35.3374 60 30.5C61 27.5 64 26.5 64 26.5C64 26.5 63 28.5 63 32C63 36.5 65.5 39 67 43.5C83.5 44.5 83 38 83 38C83 38 83.7111 38.4889 84 39.5C84.5714 41.5 81.5 43.5 78 45.5C74.5 48 72.5 50 72.5 50C72.5 50 82.3264 50.7441 86 55C90.3159 60 89.3866 66.8403 88.5 69.5C87 74 85.1077 76.1962 82.5 77.5C71.5 83 68.1273 84.5333 66.5 90.5C65.5349 94.0388 70.5 99.5 77 105C79.3046 107.54 79.5 110 79.5 110C79.5 110 81.5 105.5 86.5 104.5C83.5 108 84.5 110 84.5 110C84.5 110 91.5 101.5 99 101.5C93.5 106 92.5 109.5 92.5 111C94 113 103 117 109.5 112.5C112.389 110.5 112 105.625 111.5 103.5C108.794 92 107 83 103.5 81C100 79 94 87.5 94 87.5C94 87.5 91 79.5 102.5 72.5L91 22C90.5 17.5 88.5 16.5 87.5 16.5C86 16.5 84.5 19 82.5 22C82 17 84 13 85.5 12.5C85.5 2 87.5 0 87.5 0L139 109L88.5 219V176.5C88.5 176.5 100.955 170.5 102.5 162C103.5 156.5 99.25 147.5 100 143C100.5 140 101.5 139 101.5 139C101.5 139 89.5 141 86.5 153.5C84.5 148.5 86 142 86 142C86 142 82 143.5 80.5 147C80.5 154 82.3698 165.5 80.5 174C78.0796 185.003 68.5 194.5 68 200C67.3209 207.47 71.296 209 70.5 214.5C69.6361 220.469 63 223.5 63 228C63 232.5 67 239.346 71.5 239C78 238.5 85 228 85 228L71.5 262L59 236C59 236 56.4118 233 56.5 227C56.5808 221.5 65.5 217.5 65.5 212.5C65.5 209 59.4023 204.895 60 198.5C60.6542 191.5 67.5 188 69 181.5C70.5651 174.718 70.5 167.5 67.5 158C63.691 145.938 53 142 53 142C53 142 54.5 147.5 53 153.5C50 141 38 139 38 139C38 139 39 140.5 39 143.5C39 146.552 36.5 156.5 36.5 161C36.5 164.5 41 172 50.5 176.5V219L0 109Z" fill="black" opacity="0.3" />
</svg>
