<svg width="19" height="25" viewBox="0 0 19 25" fill="none" xmlns="http://www.w3.org/2000/svg">
<path fill-rule="evenodd" clip-rule="evenodd" d="M7.16667 1.5C7.16667 1.22386 7.42783 1 7.75 1H11.25C11.5722 1 11.8333 1.22386 11.8333 1.5V2H7.16667V1.5ZM6 2V1.5C6 0.671573 6.7835 0 7.75 0H11.25C12.2165 0 13 0.671573 13 1.5V2H17.3235C18.2494 2 19 2.89543 19 4V6H0V4C0 2.89543 0.750582 2 1.67647 2H6Z" fill="white"/>
<path fill-rule="evenodd" clip-rule="evenodd" d="M18 7H1L1.85076 21.4128C1.96972 23.4281 3.59625 25 5.5627 25H13.4373C15.4037 25 17.0303 23.4281 17.1492 21.4128L18 7ZM5.5 9C5.22386 9 5 9.23281 5 9.52V21.48C5 21.7672 5.22386 22 5.5 22C5.77614 22 6 21.7672 6 21.48V9.52C6 9.23281 5.77614 9 5.5 9ZM9.5 9C9.22386 9 9 9.23281 9 9.52V21.48C9 21.7672 9.22386 22 9.5 22C9.77614 22 10 21.7672 10 21.48V9.52C10 9.23281 9.77614 9 9.5 9ZM13 9.52C13 9.23281 13.2239 9 13.5 9C13.7761 9 14 9.23281 14 9.52V21.48C14 21.7672 13.7761 22 13.5 22C13.2239 22 13 21.7672 13 21.48V9.52Z" fill="white"/>
</svg>
